<svg width="43" height="42" viewBox="0 0 43 42" fill="none" xmlns="http://www.w3.org/2000/svg">
<path d="M16 7.5C16 7.5 8.00004 7.5 6.00001 7.5C3.99999 7.5 2.00001 9.5 2.00001 11.5C2.00001 13.5 1.99999 34.5 2.00001 36.5C2.00004 38.5 4.00001 40.5 6.00001 40.5C8.00001 40.5 29 40.5 31 40.5C33 40.5 35 38.5 35 36.5C35 34.5 35 26.5 35 26.5M26 9.5L11 24.5V31.5H18L33 16.5M26 9.5L34 1.5L41 8.5L33 16.5M26 9.5L33 16.5" stroke="black" stroke-width="3" stroke-linecap="round" stroke-linejoin="round"/>
</svg>
