<svg width="13" height="13" viewBox="0 0 13 13" fill="none" xmlns="http://www.w3.org/2000/svg">
<path d="M4.8077 2.34615C4.8077 2.34615 2.34617 2.34615 1.73077 2.34615C1.11538 2.34615 0.500004 2.96154 0.500004 3.57692C0.500004 4.19231 0.499996 10.6538 0.500004 11.2692C0.500011 11.8846 1.11539 12.5 1.73077 12.5C2.34616 12.5 8.8077 12.5 9.42308 12.5C10.0385 12.5 10.6539 11.8846 10.6539 11.2692C10.6539 10.6538 10.6539 8.19231 10.6539 8.19231M7.88462 2.96154L3.26923 7.57692V9.73077H5.42307L10.0385 5.11538M7.88462 2.96154L10.3462 0.5L12.5 2.65385L10.0385 5.11538M7.88462 2.96154L10.0385 5.11538" stroke="white" stroke-linecap="round" stroke-linejoin="round"/>
</svg>
