<svg width="492" height="138" viewBox="0 0 492 138" fill="none" xmlns="http://www.w3.org/2000/svg">
<path d="M123.146 2.55746C112.556 -1.2122 18.7638 -0.472787 7.41794 2.55746C-3.92793 5.58771 -0.902334 29.6983 7.41794 29.6983H49.0195C58.8525 29.6983 16.4946 112.629 30.8661 136H123.146C71.7112 122.43 65.6601 29.6983 83.0571 29.6983H123.146C130.71 29.6983 133.735 6.32713 123.146 2.55746Z" fill="white"/>
<path d="M88.3518 83.9801C100.454 83.9801 100.454 68.9018 103.48 68.9018C106.505 68.9018 106.505 83.9801 118.607 83.9801C106.505 83.9801 106.505 99.0583 103.48 99.0583C100.454 99.0583 100.454 83.9801 88.3518 83.9801Z" fill="white"/>
<path d="M162.699 136H143.628C142.006 136 140.812 135.659 140.044 134.976C139.361 134.208 139.02 133.013 139.02 131.392V48.448C139.02 46.8267 139.361 45.6747 140.044 44.992C140.812 44.224 142.006 43.84 143.628 43.84H164.236C165.601 43.84 166.71 44.1387 167.564 44.736C168.502 45.3333 169.356 46.3147 170.124 47.68L181.643 68.544C182.07 69.312 182.411 69.8667 182.667 70.208C183.009 70.5493 183.435 70.72 183.947 70.72H185.1C185.612 70.72 185.995 70.5493 186.251 70.208C186.593 69.8667 186.977 69.312 187.404 68.544L198.796 47.68C199.564 46.3147 200.374 45.3333 201.227 44.736C202.166 44.1387 203.318 43.84 204.684 43.84H225.419C227.041 43.84 228.193 44.224 228.876 44.992C229.644 45.6747 230.027 46.8267 230.027 48.448V131.392C230.027 133.013 229.644 134.208 228.876 134.976C228.193 135.659 227.041 136 225.419 136H205.708C204.086 136 202.892 135.659 202.124 134.976C201.441 134.208 201.1 133.013 201.1 131.392V86.336L193.548 100.288C192.78 101.739 191.841 102.805 190.732 103.488C189.708 104.085 188.385 104.384 186.764 104.384H181.643C180.022 104.384 178.657 104.085 177.548 103.488C176.524 102.805 175.627 101.739 174.859 100.288L167.307 86.336V131.392C167.307 133.013 166.924 134.208 166.156 134.976C165.473 135.659 164.321 136 162.699 136Z" fill="white"/>
<path d="M325.724 111.808C325.724 115.733 325.127 119.317 323.932 122.56C322.823 125.717 320.775 128.448 317.789 130.752C314.887 132.971 310.834 134.72 305.629 136C300.509 137.28 293.98 137.92 286.044 137.92C278.108 137.92 271.538 137.28 266.332 136C261.127 134.72 257.031 132.971 254.044 130.752C251.143 128.448 249.095 125.717 247.9 122.56C246.791 119.317 246.236 115.733 246.236 111.808V68.16C246.236 64.2347 246.791 60.6933 247.9 57.536C249.095 54.2933 251.143 51.52 254.044 49.216C257.031 46.912 261.127 45.12 266.332 43.84C271.538 42.56 278.108 41.92 286.044 41.92C293.98 41.92 300.509 42.56 305.629 43.84C310.834 45.12 314.887 46.912 317.789 49.216C320.775 51.52 322.823 54.2933 323.932 57.536C325.127 60.6933 325.724 64.2347 325.724 68.16V111.808ZM275.293 107.2C275.293 108.907 275.932 110.357 277.212 111.552C278.492 112.661 281.436 113.216 286.044 113.216C290.652 113.216 293.596 112.661 294.876 111.552C296.156 110.357 296.797 108.907 296.797 107.2V72.768C296.797 71.1467 296.156 69.7813 294.876 68.672C293.596 67.4773 290.652 66.88 286.044 66.88C281.436 66.88 278.492 67.4773 277.212 68.672C275.932 69.7813 275.293 71.1467 275.293 72.768V107.2Z" fill="white"/>
<path d="M413.06 111.808C413.06 115.733 412.505 119.317 411.396 122.56C410.286 125.717 408.324 128.448 405.508 130.752C402.777 132.971 398.98 134.72 394.116 136C389.252 137.28 383.065 137.92 375.556 137.92C368.132 137.92 361.988 137.28 357.124 136C352.345 134.72 348.548 132.971 345.732 130.752C343.001 128.448 341.081 125.717 339.971 122.56C338.947 119.317 338.435 115.733 338.435 111.808V91.072C338.435 89.4507 338.777 88.2987 339.46 87.616C340.228 86.848 341.422 86.464 343.043 86.464H361.604C363.225 86.464 364.377 86.848 365.06 87.616C365.828 88.2987 366.211 89.4507 366.211 91.072V106.688C366.211 108.395 366.723 109.845 367.747 111.04C368.857 112.149 371.374 112.704 375.299 112.704C378.969 112.704 381.273 112.149 382.211 111.04C383.235 109.845 383.747 108.395 383.747 106.688V48.448C383.747 46.8267 384.089 45.6747 384.772 44.992C385.54 44.224 386.734 43.84 388.355 43.84H408.452C410.073 43.84 411.225 44.224 411.908 44.992C412.676 45.6747 413.06 46.8267 413.06 48.448V111.808Z" fill="white"/>
<path d="M432.704 136C431.083 136 429.889 135.659 429.121 134.976C428.438 134.208 428.096 133.013 428.096 131.392V116.16C428.096 114.539 428.438 113.387 429.121 112.704C429.889 111.936 431.083 111.552 432.704 111.552H445.376V68.544H432.704C431.083 68.544 429.889 68.2027 429.121 67.52C428.438 66.752 428.096 65.5573 428.096 63.936V48.448C428.096 46.8267 428.438 45.6747 429.121 44.992C429.889 44.224 431.083 43.84 432.704 43.84H487.233C488.854 43.84 490.006 44.224 490.689 44.992C491.457 45.6747 491.84 46.8267 491.84 48.448V63.936C491.84 65.5573 491.457 66.752 490.689 67.52C490.006 68.2027 488.854 68.544 487.233 68.544H474.816V111.552H487.233C488.854 111.552 490.006 111.936 490.689 112.704C491.457 113.387 491.84 114.539 491.84 116.16V131.392C491.84 133.013 491.457 134.208 490.689 134.976C490.006 135.659 488.854 136 487.233 136H432.704Z" fill="white"/>
</svg>
